<svg width="44" height="44" viewBox="0 0 46 46" fill="none" xmlns="http://www.w3.org/2000/svg">
<path fill-rule="evenodd" clip-rule="evenodd" d="M22.8063 25.6118C27.3398 25.6118 31.0288 21.9228 31.0288 17.3875C31.0288 12.853 27.3398 9.16406 22.8063 9.16406C18.2728 9.16406 14.5802 12.853 14.5802 17.3875C14.5793 21.9228 18.2728 25.6118 22.8063 25.6118ZM23.0004 1.88672C34.6405 1.88672 44.1136 11.358 44.1136 23C44.1136 28.5173 41.9843 33.5459 38.5065 37.3112C37.2559 34.3751 35.2281 31.8478 32.6082 29.9701C29.727 27.9082 26.3381 26.7896 22.8099 26.7366C22.8054 26.7357 22.8018 26.7357 22.7973 26.7366C19.324 26.7887 15.9818 27.8758 13.1301 29.8793C10.5399 31.6996 8.51216 34.1577 7.22739 37.0201C3.90677 33.2889 1.88708 28.3762 1.88708 23C1.88708 11.358 11.3602 1.88672 23.0004 1.88672ZM38.5658 7.43547C42.7238 11.5934 45.013 17.1206 45.013 23C45.013 28.8794 42.7229 34.4075 38.5658 38.5645C34.4087 42.7225 28.8815 45.0117 23.0004 45.0117C17.1228 45.0117 11.592 42.7225 7.43493 38.5645C3.27696 34.4075 0.986847 28.8794 0.986847 23C0.986847 17.1206 3.27696 11.5934 7.43403 7.43547C11.592 3.2784 17.1228 0.988281 23.0004 0.988281C28.8815 0.988281 34.4087 3.2784 38.5658 7.43547Z" fill="white"/>
</svg>
